# xmcd
#
# Track frame offsets: 
#        150
#        18749
#        39277
#        56876
#        75165
#        93749
#        114277
#        131876
#
# Disc length: 2000 seconds
#
# Revision: 1
# Processed by: cddbd v1.5.2PL0 Copyright (c) Steve Scherf et al.
# Submitted via: ExactAudioCopyFreeDBPlugin 1.0
#
DISCID=6207ce08
DTITLE=NMB48 - ナギイチ【劇場盤】
DYEAR=2012
DGENRE=JPop
TTITLE0=ナギイチ
TTITLE1=白組 - 最後のカタルシス
TTITLE2=紅組 - 僕がもう少し大胆なら
TTITLE3=渡辺美優紀 - わるきー
TTITLE4=ナギイチ off vocal ver.
TTITLE5=白組 - 最後のカタルシス off vocal ver.
TTITLE6=紅組 - 僕がもう少し大胆なら off vocal ver.
TTITLE7=渡辺美優紀 - わるきー off vocal ver.
EXTD=
EXTT0=
EXTT1=
EXTT2=
EXTT3=
EXTT4=
EXTT5=
EXTT6=
EXTT7=
PLAYORDER=
